<?xml version="1.0" standalone="no"?><!DOCTYPE svg PUBLIC "-//W3C//DTD SVG 1.1//EN" "http://www.w3.org/Graphics/SVG/1.1/DTD/svg11.dtd"><svg t="1607851435267" class="icon" viewBox="0 0 1024 1024" version="1.1" xmlns="http://www.w3.org/2000/svg" p-id="3848" xmlns:xlink="http://www.w3.org/1999/xlink" width="200" height="200"><defs><style type="text/css"></style></defs><path d="M512 870.4c-9.6 0-19.2-3.2-25.6-9.6l-272-275.2c-64-64-102.4-144-102.4-220.8 0-128 83.2-214.4 211.2-214.4 96 0 144 41.6 188.8 92.8 44.8-51.2 89.6-92.8 188.8-92.8 124.8 0 211.2 86.4 211.2 214.4 0 76.8-35.2 153.6-102.4 220.8l-272 275.2c-6.4 6.4-16 9.6-25.6 9.6V832v38.4zM323.2 195.2c-102.4 0-169.6 67.2-169.6 169.6 0 64 32 134.4 89.6 188.8l268.8 272 268.8-272c57.6-57.6 89.6-124.8 89.6-192 0-102.4-67.2-169.6-169.6-169.6-89.6 0-124.8 41.6-172.8 96l-16 22.4-16-19.2c-48-57.6-83.2-96-172.8-96z" p-id="3849"></path></svg>