<?xml version="1.0" standalone="no"?><!DOCTYPE svg PUBLIC "-//W3C//DTD SVG 1.1//EN" "http://www.w3.org/Graphics/SVG/1.1/DTD/svg11.dtd"><svg t="1609751487449" class="icon" viewBox="0 0 1024 1024" version="1.1" xmlns="http://www.w3.org/2000/svg" p-id="4283" xmlns:xlink="http://www.w3.org/1999/xlink" width="200" height="200"><defs><style type="text/css"></style></defs><path d="M926.592 415.36c27.52-18.176 29.44-34.176 29.44-58.24V212.48A84.48 84.48 0 0 0 871.552 128H148.48A84.48 84.48 0 0 0 64 212.48v144.64c0 24.064 2.304 43.648 31.104 59.2 19.648 9.216 65.28 35.84 65.28 85.44 0 56.32-33.472 74.88-62.528 84.736l-2.688 1.216c-28.16 17.6-31.168 46.848-31.168 58.624v144.64c0 46.528 37.888 84.48 84.48 84.48h723.072c46.528 0 84.48-37.952 84.48-84.48v-144.64c0-31.232-8.64-42.752-30.72-59.072-49.664-25.6-65.728-46.464-65.728-85.504 0-39.168 14.912-58.432 67.008-86.4z m-259.84 74.24c0 13.376-10.816 24.256-24.128 24.256H546.304v23.872h96.32c13.312 0 24.128 10.88 24.128 24.256v24.064a24.32 24.32 0 0 1-24.128 24.32H546.304v72.128c0 13.44-10.88 24.192-24.256 24.192H497.92a24.192 24.192 0 0 1-24.256-24.192V610.368H377.344a24.32 24.32 0 0 1-24.128-24.32V561.92c0-13.376 10.88-24.256 24.128-24.256h96.32V513.92H377.344a24.256 24.256 0 0 1-24.128-24.256v-24.064c0-13.312 10.88-24.192 24.128-24.192h63.36L360.64 355.392a25.024 25.024 0 0 1 0-33.28l15.36-16.768a23.488 23.488 0 0 1 33.28 0L509.888 413.44l100.672-108.16a23.552 23.552 0 0 1 33.28 0.128l15.552 16.832a25.152 25.152 0 0 1 0 33.408l-79.872 85.76h63.104c13.312 0 24.128 10.88 24.128 24.192v24.064z" p-id="4284"></path></svg>