<?xml version="1.0" standalone="no"?><!DOCTYPE svg PUBLIC "-//W3C//DTD SVG 1.1//EN" "http://www.w3.org/Graphics/SVG/1.1/DTD/svg11.dtd"><svg t="1607851410086" class="icon" viewBox="0 0 1024 1024" version="1.1" xmlns="http://www.w3.org/2000/svg" p-id="3083" xmlns:xlink="http://www.w3.org/1999/xlink" width="200" height="200"><defs><style type="text/css"></style></defs><path d="M636.8 320c60.8 0 105.6 16 124.8 51.2C790.4 416 784 476.8 771.2 528c-12.8 64-25.6 134.4 3.2 211.2 9.6 25.6 25.6 48 41.6 70.4 28.8 44.8 48 73.6 35.2 102.4-12.8 28.8-60.8 38.4-99.2 38.4h-9.6c-166.4 0-288-156.8-358.4-288-35.2-64-51.2-115.2-48-169.6 0-3.2 9.6-112 169.6-156.8 48-9.6 92.8-16 131.2-16m0-38.4c-41.6 0-89.6 6.4-140.8 22.4-188.8 51.2-195.2 188.8-195.2 188.8C297.6 563.2 320 624 352 681.6c80 144 211.2 307.2 393.6 307.2h9.6c48-3.2 108.8-12.8 131.2-60.8 35.2-76.8-48-137.6-73.6-204.8-22.4-64-16-128 0-192 12.8-60.8 19.2-128-16-185.6-32-38.4-86.4-64-160-64z m89.6-211.2c38.4 0 67.2 28.8 67.2 67.2 0 38.4-28.8 67.2-67.2 67.2-38.4 0-67.2-28.8-67.2-67.2 0-38.4 32-67.2 67.2-67.2m0-38.4c-57.6 0-105.6 48-105.6 105.6s48 105.6 105.6 105.6S832 195.2 832 137.6 784 32 726.4 32z m-236.8 76.8c25.6 0 44.8 19.2 44.8 44.8 0 25.6-19.2 44.8-44.8 44.8-25.6 0-44.8-19.2-44.8-44.8 0-25.6 19.2-44.8 44.8-44.8m0-38.4c-44.8 0-83.2 38.4-83.2 83.2 0 44.8 38.4 83.2 83.2 83.2s83.2-38.4 83.2-83.2c0-44.8-38.4-83.2-83.2-83.2z m-179.2 128c19.2 0 35.2 16 35.2 35.2s-16 35.2-35.2 35.2-35.2-16-35.2-35.2 16-35.2 35.2-35.2m0-38.4c-38.4 0-73.6 32-73.6 73.6s32 73.6 73.6 73.6 73.6-32 73.6-73.6-32-73.6-73.6-73.6zM195.2 345.6c16 0 25.6 12.8 25.6 25.6s-12.8 25.6-25.6 25.6-25.6-12.8-25.6-25.6 12.8-25.6 25.6-25.6m0-38.4c-35.2 0-64 28.8-64 64s28.8 64 64 64 64-28.8 64-64-28.8-64-64-64z" p-id="3084"></path></svg>