<?xml version="1.0" standalone="no"?><!DOCTYPE svg PUBLIC "-//W3C//DTD SVG 1.1//EN" "http://www.w3.org/Graphics/SVG/1.1/DTD/svg11.dtd"><svg t="1608015513716" class="icon" viewBox="0 0 1117 1024" version="1.1" xmlns="http://www.w3.org/2000/svg" p-id="3262" xmlns:xlink="http://www.w3.org/1999/xlink" width="218.1640625" height="200"><defs><style type="text/css"></style></defs><path d="M1011.898182 51.758545c0-27.927273-22.714182-50.641455-50.641455-50.641454l-861.090909 1.117091c-27.927273 0-50.641455 22.714182-50.641454 50.641454L0 964.701091c0 27.927273 22.714182 50.548364 50.641455 50.548364l962.373818-1.210182c27.927273 0 50.641455-22.714182 50.641454-50.734546L1011.898182 51.758545zM814.08 417.792a307.386182 307.386182 0 0 1-282.065455 181.806545h-0.372363a307.479273 307.479273 0 0 1-282.065455-181.154909 50.641455 50.641455 0 1 1 92.625455-40.96 206.103273 206.103273 0 0 0 189.44 120.832h0.279273c82.757818 0 157.044364-47.662545 189.44-121.297454a50.734545 50.734545 0 0 1 92.718545 40.773818z" p-id="3263"></path></svg>