<?xml version="1.0" standalone="no"?><!DOCTYPE svg PUBLIC "-//W3C//DTD SVG 1.1//EN" "http://www.w3.org/Graphics/SVG/1.1/DTD/svg11.dtd"><svg t="1607669256628" class="icon" viewBox="0 0 1024 1024" version="1.1" xmlns="http://www.w3.org/2000/svg" p-id="3132" xmlns:xlink="http://www.w3.org/1999/xlink" width="200" height="200"><defs><style type="text/css"></style></defs><path d="M512 1024 492.266303 1000.793202C478.318547 984.401992 150.588235 596.47669 150.588235 364.155229 150.588235 163.376991 312.706428 0 512 0 711.293573 0 873.411765 163.376991 873.411765 364.155229 873.411765 596.47669 545.681453 984.401992 531.733697 1000.793202L512 1024 512 1024ZM512 52.384279C341.356626 52.384279 202.577863 192.244671 202.577863 364.155229 202.577863 546.458154 440.919558 854.82131 512 942.719877 583.05249 854.82131 821.422137 546.345499 821.422137 364.155229 821.422137 192.244671 682.643375 52.384279 512 52.384279L512 52.384279Z" p-id="3133"></path><path d="M496.941176 512C422.193819 512 361.411765 451.190456 361.411765 376.470588 361.411765 301.750721 422.193819 240.941176 496.941176 240.941176 571.688532 240.941176 632.470588 301.750721 632.470588 376.470588 632.470588 451.190456 571.688532 512 496.941176 512L496.941176 512ZM496.941176 292.073977C450.426822 292.073977 412.544565 329.928743 412.544565 376.470588 412.544565 423.012433 450.426822 460.867198 496.941176 460.867198 543.45553 460.867198 581.337787 423.012433 581.337787 376.470588 581.337787 329.928743 543.45553 292.073977 496.941176 292.073977L496.941176 292.073977Z" p-id="3134"></path></svg>