<?xml version="1.0" standalone="no"?><!DOCTYPE svg PUBLIC "-//W3C//DTD SVG 1.1//EN" "http://www.w3.org/Graphics/SVG/1.1/DTD/svg11.dtd"><svg t="1609750481466" class="icon" viewBox="0 0 1024 1024" version="1.1" xmlns="http://www.w3.org/2000/svg" p-id="2740" xmlns:xlink="http://www.w3.org/1999/xlink" width="200" height="200"><defs><style type="text/css"></style></defs><path d="M448.11433 469.504H230.51433C102.51433 469.504-3.98167 363.008 0.11433 235.008 0.11433 107.008 106.61033 0.512 234.61033 4.608c128 0 230.4 106.496 230.4 230.4v217.6c0 8.192-8.192 16.896-16.896 16.896z" fill="#FF7A45" p-id="2741"></path><path d="M572.01833 469.504h217.6c128 0 234.496-106.496 230.4-234.496s-102.4-239.104-230.4-234.496c-128 0-230.4 106.496-230.4 230.4v217.6c-4.608 12.288 4.096 20.992 12.8 20.992z" fill="#FAAD14" p-id="2742"></path><path d="M448.11433 554.496H230.51433c-128 0-234.496 106.496-230.4 234.496 0 128 106.496 234.496 234.496 230.4 128 0 230.4-106.496 230.4-230.4v-217.6c0-8.192-8.192-16.896-16.896-16.896z" fill="#52C41A" p-id="2743"></path><path d="M572.01833 554.496h217.6c128 0 234.496 106.496 230.4 234.496s-106.496 234.496-234.496 230.4c-128 0-230.4-106.496-230.4-230.4v-217.6c-0.512-8.192 8.192-16.896 16.896-16.896z" fill="#3293ED" p-id="2744"></path></svg>