<?xml version="1.0" standalone="no"?><!DOCTYPE svg PUBLIC "-//W3C//DTD SVG 1.1//EN" "http://www.w3.org/Graphics/SVG/1.1/DTD/svg11.dtd"><svg t="1610088778888" class="icon" viewBox="0 0 1335 1024" version="1.1" xmlns="http://www.w3.org/2000/svg" p-id="14447" xmlns:xlink="http://www.w3.org/1999/xlink" width="260.7421875" height="200"><defs><style type="text/css"></style></defs><path d="M823.679743 0.00032a511.99984 511.99984 0 1 0 511.99984 511.99984 511.58384 511.58384 0 0 0-511.99984-511.99984zM290.623909 783.072075a554.655827 554.655827 0 0 1-69.279978-248.479922 542.87983 542.87983 0 0 1 46.687985-243.935924 59.327981 59.327981 0 1 0-108.415966-48.191985 669.087791 669.087791 0 0 0-57.215982 296.639908 755.743764 755.743764 0 0 0 12.031996 103.903967l-18.079994-13.535996a60.223981 60.223981 0 1 0-72.287978 96.35197l177.599945 134.047958a61.279981 61.279981 0 0 0 36.127989 12.031997 58.239982 58.239982 0 0 0 40.671987-16.607995l1.504-1.504a57.599982 57.599982 0 0 0 10.559996-70.783978z" fill="#FA5E5F" p-id="14448"></path><path d="M623.999805 451.968179v4.287998a36.511989 36.511989 0 0 0 36.543989 36.575989h131.199959v68.799978h-96.79997a36.511989 36.511989 0 0 0-36.543989 36.543989v4.287999a36.511989 36.511989 0 0 0 36.543989 36.543988h96.76797v90.303972a38.719988 38.719988 0 0 0 77.407975 0V639.04012h96.73597a36.511989 36.511989 0 0 0 36.543989-36.543988v-4.287999a36.511989 36.511989 0 0 0-36.543989-36.575989h-96.76797v-68.799978h131.199959a36.511989 36.511989 0 0 0 36.511989-36.543989v-4.319998a36.511989 36.511989 0 0 0-36.543989-36.543989h-145.023954c0.768-0.64 1.504-1.28 2.271999-2.047999l91.263972-91.263972a38.719988 38.719988 0 1 0-54.719983-54.719983l-63.99998 63.99998-63.99998-63.99998a38.719988 38.719988 0 0 0-54.719983 54.719983l91.551971 91.263972c0.768 0.768 1.504 1.408 2.271999 2.047999h-144.607954a36.511989 36.511989 0 0 0-36.543989 36.543989z" fill="#FEDFDF" p-id="14449"></path></svg>