<?xml version="1.0" standalone="no"?><!DOCTYPE svg PUBLIC "-//W3C//DTD SVG 1.1//EN" "http://www.w3.org/Graphics/SVG/1.1/DTD/svg11.dtd"><svg t="1610088941656" class="icon" viewBox="0 0 1024 1024" version="1.1" xmlns="http://www.w3.org/2000/svg" p-id="16073" xmlns:xlink="http://www.w3.org/1999/xlink" width="200" height="200"><defs><style type="text/css"></style></defs><path d="M148.9 190.4h724.7c30.8 0 55.7 25 55.7 55.7v124H93.1v-124c0-30.8 25-55.7 55.8-55.7z" fill="#50E3C2" p-id="16074"></path><path d="M218.5 441.2h655.1c30.8 0 55.7 25 55.7 55.7v390.2c0 30.8-25 55.7-55.7 55.7H218.5c-30.8 0-55.7-25-55.7-55.7V497c0-30.8 25-55.8 55.7-55.8z" fill="#FFDC80" p-id="16075"></path><path d="M148.9 218.2c-15.4 0-27.9 12.5-27.9 27.9v641.1c0 15.4 12.5 27.9 27.9 27.9h724.7c15.4 0 27.9-12.5 27.9-27.9V246.1c0-15.4-12.5-27.9-27.9-27.9H148.9z m0-55.7h724.7c46.2 0 83.6 37.4 83.6 83.6v641.1c0 46.2-37.4 83.6-83.6 83.6H148.9c-46.2 0-83.6-37.4-83.6-83.6V246.1c-0.1-46.2 37.4-83.6 83.6-83.6z" fill="#383838" p-id="16076"></path><path d="M107 399.4c-15.4 0-27.9-12.5-27.9-27.9 0-15.4 12.5-27.9 27.9-27.9h805.1c15.4 0 27.9 12.5 27.9 27.9 0 15.4-12.5 27.9-27.9 27.9H107zM316.1 273.4c0 15.4-12.5 27.9-27.9 27.9s-27.9-12.5-27.9-27.9V106.7c0-15.4 12.5-27.9 27.9-27.9s27.9 12.5 27.9 27.9v166.7zM762.1 273.4c0 15.4-12.5 27.9-27.9 27.9-15.4 0-27.9-12.5-27.9-27.9V106.7c0-15.4 12.5-27.9 27.9-27.9 15.4 0 27.9 12.5 27.9 27.9v166.7z" fill="#383838" p-id="16077"></path></svg>