<?xml version="1.0" standalone="no"?><!DOCTYPE svg PUBLIC "-//W3C//DTD SVG 1.1//EN" "http://www.w3.org/Graphics/SVG/1.1/DTD/svg11.dtd"><svg t="1610088669596" class="icon" viewBox="0 0 1024 1024" version="1.1" xmlns="http://www.w3.org/2000/svg" p-id="13445" xmlns:xlink="http://www.w3.org/1999/xlink" width="200" height="200"><defs><style type="text/css"></style></defs><path d="M565.248 732.672c0-97.28 58.88-180.736 142.848-216.576V155.648c1.024-22.528-16.896-40.448-38.912-40.448H98.304c-22.016 0-39.424 17.92-39.424 40.448v727.04l81.92-65.536c8.704-6.656 20.48-6.656 29.184 0l97.792 77.824L369.664 814.08c8.704-6.656 20.48-6.656 29.184 0l98.304 78.336 86.016-68.608c-11.264-27.648-17.92-58.88-17.92-91.136zM162.304 307.2c0-17.92 14.848-32.768 32.768-32.768h376.832c17.92 0 32.768 14.848 32.768 32.768 0 17.92-14.848 32.768-32.768 32.768H195.072c-17.92 0-32.768-14.848-32.768-32.768z m0 138.752c0-17.92 14.848-32.768 32.768-32.768h376.832c17.92 0 32.768 14.848 32.768 32.768 0 17.92-14.848 32.768-32.768 32.768H195.072c-17.92-0.512-32.768-14.848-32.768-32.768z m337.92 138.752c0 17.92-14.848 32.768-32.768 32.768H195.072c-17.92 0-32.768-14.848-32.768-32.768 0-17.92 14.848-32.768 32.768-32.768h272.896c17.92 0 32.256 14.848 32.256 32.768z" fill="#3D9AD5" p-id="13446"></path><path d="M267.776 911.36l-105.984-83.968c-4.096-3.072-9.216-3.072-13.312 0l-102.4 81.92V155.648C46.08 125.952 69.12 102.4 98.304 102.4h570.88c14.336 0 27.648 5.632 37.376 15.872 9.728 10.24 14.848 23.552 14.336 37.376v368.64l-7.68 3.072c-81.92 34.816-135.168 115.2-135.168 204.8a230.4 230.4 0 0 0 16.896 86.528l3.584 8.704-101.376 80.896L390.656 824.32c-4.096-3.072-9.216-3.072-13.312 0l-109.568 87.04z m-112.128-112.128c7.68 0 15.872 2.56 22.528 7.68l90.112 71.68L361.472 803.84c13.312-10.24 31.744-10.24 45.056 0l90.624 72.192 70.656-56.32c-10.24-27.648-15.36-57.856-15.36-87.04 0-96.768 55.808-184.32 142.848-224.768V155.136c0.512-7.168-2.048-13.824-7.168-18.944-5.12-5.12-11.776-8.192-18.944-8.192H98.304c-14.848 0-26.624 12.288-26.624 27.648v700.416l60.928-49.152c7.168-5.12 14.848-7.68 23.04-7.68z m311.808-168.96H195.072c-25.088 0-45.568-20.48-45.568-45.568s20.48-45.568 45.568-45.568h272.896c25.088 0 45.056 20.48 45.056 45.568s-20.48 45.568-45.568 45.568z m-272.384-65.536c-10.752 0-19.968 9.216-19.968 19.968 0 10.752 9.216 19.968 19.968 19.968h272.384c10.752 0 19.968-9.216 19.968-19.968 0-11.264-8.704-19.968-19.456-19.968H195.072zM571.904 491.52H195.072c-25.088-0.512-45.568-20.992-45.568-45.568 0-25.088 20.48-45.568 45.568-45.568h376.832c25.088 0 45.568 20.48 45.568 45.568s-20.48 45.568-45.568 45.568zM195.072 425.984c-10.752 0-19.968 9.216-19.968 19.968 0 10.752 9.216 19.456 20.48 19.968h376.32c10.752 0 19.968-9.216 19.968-19.968 0-10.752-9.216-19.968-19.968-19.968H195.072z m376.832-73.216H195.072c-25.088 0-45.568-20.48-45.568-45.568s20.48-45.568 45.568-45.568h376.832c25.088 0 45.568 20.48 45.568 45.568s-20.48 45.568-45.568 45.568zM195.072 287.232c-10.752 0-19.968 9.216-19.968 19.968 0 10.752 9.216 19.968 19.968 19.968h376.832c10.752 0 19.968-9.216 19.968-19.968 0-10.752-9.216-19.968-19.968-19.968H195.072z" fill="#0579CA" p-id="13447"></path><path d="M800.256 558.592c-96.768 0-175.104 78.336-175.104 175.104s78.336 175.104 175.104 175.104 175.104-78.336 175.104-175.104-78.336-175.104-175.104-175.104z m0 321.536c-80.896 0-146.432-65.536-146.432-146.432s65.536-146.432 146.432-146.432 146.432 65.536 146.432 146.432c1.024 80.896-65.024 146.432-146.432 146.432z" fill="#0579CA" p-id="13448"></path><path d="M823.296 741.376l50.176-50.176c6.656-6.656 6.656-16.384 0-23.04s-16.384-6.656-23.04 0l-50.176 50.176-50.176-50.176c-6.656-6.656-16.384-6.656-23.04 0s-6.656 16.384 0 23.04l50.176 50.176-50.176 50.176c-6.656 6.656-6.656 16.384 0 23.04s16.384 6.656 23.04 0l50.176-50.176 50.176 50.176c6.656 6.656 16.384 6.656 23.04 0s6.656-16.384 0-23.04l-50.176-50.176z" fill="#0579CA" p-id="13449"></path></svg>