<?xml version="1.0" standalone="no"?><!DOCTYPE svg PUBLIC "-//W3C//DTD SVG 1.1//EN" "http://www.w3.org/Graphics/SVG/1.1/DTD/svg11.dtd"><svg t="1610088010332" class="icon" viewBox="0 0 1815 1024" version="1.1" xmlns="http://www.w3.org/2000/svg" p-id="8321" xmlns:xlink="http://www.w3.org/1999/xlink" width="354.4921875" height="200"><defs><style type="text/css"></style></defs><path d="M864.381985 985.539906h-734.862508c-7.554661 0-13.735748-6.181087-13.735748-13.735748V152.810195c0-7.554661 6.181087-13.735748 13.735748-13.735748h734.862508c7.554661 0 13.735748 6.181087 13.735748 13.735748V971.804158c0 7.554661-6.181087 13.735748-13.735748 13.735748z" fill="#5AABFE" p-id="8322"></path><path d="M108.457997 851.959759h756.038453V985.539906h-756.038453z" fill="#107EEF" p-id="8323"></path><path d="M750.375278 121.332439h114.235636v823.572546H750.375278z" fill="#107EEF" p-id="8324"></path><path d="M762.050664 1024h-556.183322c-76.691259 0-139.074447-62.497653-139.074447-139.188911V225.495193c0-76.691259 62.383188-139.188911 139.074447-139.188911h573.353007c76.691259 0 139.074447 62.497653 139.074446 139.188911v348.430137c0 16.253968-13.04896 29.302929-29.302928 29.302928-16.253968 0-29.302929-13.04896-29.302929-29.302928V225.495193c0-44.412251-36.056338-80.583054-80.468589-80.583053h-573.353007c-44.412251 0-80.468589 36.170803-80.46859 80.583053v659.315896c0 44.412251 36.056338 80.583054 80.46859 80.583054h556.183322c16.253968 0 29.302929 13.04896 29.302928 29.302928 0 16.253968-13.163425 29.302929-29.302928 29.302929z" fill="#281E85" p-id="8325"></path><path d="M709.396964 379.564498h-406.349207c-16.139504 0-29.302929-13.163425-29.302928-29.302929 0-16.139504 13.163425-29.302929 29.302928-29.302928h406.234742c16.139504 0 29.302929 13.163425 29.302929 29.302928 0.114465 16.025039-13.04896 29.302929-29.188464 29.302929zM477.148361 583.769282h-173.986139c-16.139504 0-29.302929-13.163425-29.302929-29.302928 0-16.139504 13.163425-29.302929 29.302929-29.302929h173.986139c16.139504 0 29.302929 13.163425 29.302929 29.302929 0 16.025039-13.27789 29.302929-29.302929 29.302928zM389.697433 789.347641h-86.535211c-16.139504 0-29.302929-13.163425-29.302929-29.302928 0-16.139504 13.163425-29.302929 29.302929-29.302929h86.535211c16.139504 0 29.302929 13.163425 29.302929 29.302929 0 16.139504-13.27789 29.302929-29.302929 29.302928z" fill="#281E85" p-id="8326"></path><path d="M783.226608 766.798122m-212.331768 0a212.331768 212.331768 0 1 0 424.663537 0 212.331768 212.331768 0 1 0-424.663537 0Z" fill="#FFFFFF" p-id="8327"></path><path d="M778.419097 525.850212c-137.471943 0-248.845965 111.488486-248.845965 249.074894 0 137.586407 111.488486 249.074894 248.845965 249.074894C915.891039 1024 1027.379526 912.511514 1027.379526 774.925106c0-137.586407-111.488486-249.074894-248.960429-249.074894z m134.610328 383.685223c-35.941873 35.941873-83.673597 55.744243-134.495864 55.744243-50.822267 0-98.668455-19.80237-134.495864-55.744243-35.941873-35.941873-55.744243-83.788062-55.744243-134.724793s19.80237-98.668455 55.744243-134.724794c35.941873-35.941873 83.673597-55.629779 134.495864-55.629778 50.822267 0 98.668455 19.80237 134.495864 55.744243 35.941873 35.941873 55.744243 83.788062 55.744243 134.724793s-19.80237 98.668455-55.744243 134.610329z" fill="#281E85" p-id="8328"></path><path d="M857.74304 793.353901h-87.679857v-87.908786c0-16.139504-13.163425-29.302929-29.302928-29.302929-16.139504 0-29.302929 13.163425-29.302929 29.302929v117.211715c0 16.139504 13.163425 29.302929 29.302929 29.302929h117.09725c16.139504 0 29.302929-13.163425 29.302929-29.302929 0-16.139504-13.27789-29.302929-29.417394-29.302929z" fill="#281E85" p-id="8329"></path></svg>