<?xml version="1.0" standalone="no"?><!DOCTYPE svg PUBLIC "-//W3C//DTD SVG 1.1//EN" "http://www.w3.org/Graphics/SVG/1.1/DTD/svg11.dtd"><svg t="1609827284735" class="icon" viewBox="0 0 1024 1024" version="1.1" xmlns="http://www.w3.org/2000/svg" p-id="5933" xmlns:xlink="http://www.w3.org/1999/xlink" width="200" height="200"><defs><style type="text/css"></style></defs><path d="M874.8 311v-0.2c-1.4-10.8-9.7-18.1-20.8-18.1H732.4v-31.3c0-39.6-15.3-76.6-43-104.4-27.7-27.7-64.8-43-104.4-43-52.1 0-102.1 28.9-127.5 73.5l-3 5.2 6 0.5c12.2 1 22.9 4.1 34.2 7.3l5.2 1.5 1.6-2.2c19.2-27.2 49.9-42.9 84.3-42.9 57.4 0 104.1 46.7 104.1 104.1v31.4h-88.6l2.2 5.3c5.8 14.1 9.4 25.3 11 34.4l0.6 3.2h74.5v35.2h22c5.6 0 11.5 1.2 15.3 3.1l5.6 2.8v-41.1h101.7l25.7 349.3h-81l4.2 42.9h79.7l2.7 27.5h-79.7l4.2 42.9h100c0.8 0.1 1.6 0.2 2.4 0.2 3.5 0 7-1.3 9.9-3.7 4.7-3.9 7.5-10.1 7.7-17.3v-1L874.8 311z" p-id="5934"></path><path d="M731 420.4v-0.2c-1.4-10.8-9.7-18.1-20.9-18.1H588.3v-31.3c0-39.5-15.3-76.6-43.1-104.3-27.8-27.7-65-43-104.6-43-39.6 0-76.7 15.3-104.4 43-27.7 27.7-42.9 64.7-42.9 104.3v31.3h-123c-11.9 0-19.5 9-20.9 18v0.1L114 885.4v2.6c0 12.1 9.9 22 22.1 22h609c12.2 0 22.1-9.9 22.1-22v-3.8h-0.9L731 420.4zM440.6 265.7c57.5 0 104.4 46.7 104.4 104V401H337.4v-35.2h-1.1c2-55.6 48-100.1 104.3-100.1zM190.8 445h102v70.1c-11.3 7.3-18.2 19.7-18.2 32.7 0 21.5 17.6 39 39.1 39 21.6 0 39.1-17.5 39.1-39 0-13.5-6.5-25.1-18.2-32.7V445h206.8v70.1c-11.3 7.3-18.2 19.7-18.2 32.7 0 21.5 17.6 39 39.1 39 21.6 0 39.1-17.5 39.1-39 0-13.5-6.5-25.1-18.2-32.7V445h103.1l26.9 349.1H162L190.8 445z m-33.4 421l2.7-27.5H719l2.7 27.5H157.4z" p-id="5935"></path></svg>