<?xml version="1.0" standalone="no"?><!DOCTYPE svg PUBLIC "-//W3C//DTD SVG 1.1//EN" "http://www.w3.org/Graphics/SVG/1.1/DTD/svg11.dtd"><svg t="1609827198686" class="icon" viewBox="0 0 1024 1024" version="1.1" xmlns="http://www.w3.org/2000/svg" p-id="5038" xmlns:xlink="http://www.w3.org/1999/xlink" width="200" height="200"><defs><style type="text/css"></style></defs><path d="M512.000177 105.931034c252.928 0 459.034483 204.023172 459.034482 459.034483s-206.106483 459.034483-459.034482 459.034483S52.965694 819.976828 52.965694 564.965517 254.375901 105.931034 512.000177 105.931034z m94.419862 177.822897a8.121379 8.121379 0 0 0-10.557793 1.588966L337.920177 575.841103a10.098759 10.098759 0 0 0-1.97738 9.675035c1.05931 3.354483 3.778207 5.790897 6.991449 6.285241l131.778206 19.773793-51.694344 224.114759a9.780966 9.780966 0 0 0 4.307862 10.628414 8.121379 8.121379 0 0 0 10.487172-1.977379l248.549517-300.173242a10.134069 10.134069 0 0 0 1.659587-9.745655 8.792276 8.792276 0 0 0-7.203311-6.002759l-128.564965-14.300689 58.156138-219.559724a9.851586 9.851586 0 0 0-3.954759-10.804966z" p-id="5039"></path><path d="M944.51659 282.482759c-68.007724-108.932414-178.034759-189.793103-307.906207-221.748966C671.461694 23.304828 721.920177 0 778.946383 0 884.806797 0 971.034659 83.226483 971.034659 187.250759c0 34.886621-9.675034 67.407448-26.518069 95.232zM386.507211 60.521931c-131.001379 31.744-240.286897 112.286897-307.588414 220.972138A183.084138 183.084138 0 0 1 52.965694 187.250759C52.965694 83.226483 137.216177 0 245.018659 0 300.914935 0 351.338108 23.234207 386.507211 60.521931z" p-id="5040"></path></svg>