<?xml version="1.0" standalone="no"?><!DOCTYPE svg PUBLIC "-//W3C//DTD SVG 1.1//EN" "http://www.w3.org/Graphics/SVG/1.1/DTD/svg11.dtd"><svg t="1608100659768" class="icon" viewBox="0 0 1024 1024" version="1.1" xmlns="http://www.w3.org/2000/svg" p-id="1379" xmlns:xlink="http://www.w3.org/1999/xlink" width="200" height="200"><defs><style type="text/css"></style></defs><path d="M300.032 128A172.224 172.224 0 0 0 128 300.032a172.224 172.224 0 0 0 172.032 171.968 172.224 172.224 0 0 0 171.968-172.032A172.224 172.224 0 0 0 299.968 128z m0 294.016A122.24 122.24 0 0 1 177.92 299.968a122.24 122.24 0 0 1 121.984-121.984 122.24 122.24 0 0 1 122.048 121.984 122.24 122.24 0 0 1-122.048 122.048z m0 129.984A172.224 172.224 0 0 0 128 724.032 172.224 172.224 0 0 0 300.032 896a172.224 172.224 0 0 0 171.968-172.032 172.224 172.224 0 0 0-172.032-171.968z m0 294.4a122.24 122.24 0 0 1-122.048-121.984 122.24 122.24 0 0 1 121.984-122.048 122.24 122.24 0 0 1 122.048 122.048 122.24 122.24 0 0 1-122.048 121.984z m261.12-666.816h349.632v49.984H561.28v-49.92z m0 191.232h349.632v49.984H561.28v-49.984z m0 232.768h349.632v50.048H561.28V603.52z m0 191.232h349.632v49.984H561.28v-49.984z" fill="#666666" p-id="1380"></path></svg>