<?xml version="1.0" standalone="no"?><!DOCTYPE svg PUBLIC "-//W3C//DTD SVG 1.1//EN" "http://www.w3.org/Graphics/SVG/1.1/DTD/svg11.dtd"><svg t="1609656529615" class="icon" viewBox="0 0 1024 1024" version="1.1" xmlns="http://www.w3.org/2000/svg" p-id="2660" xmlns:xlink="http://www.w3.org/1999/xlink" width="200" height="200"><defs><style type="text/css"></style></defs><path d="M64.1 63.19h896v896h-896z" fill-opacity="0" p-id="2661"></path><path d="M243.3 741.77s36.74-219.12 109.82-219.12c73.18 0 64.47 61.22 119.44 61.22 55.07 0 77.79-188.66 151.67-188.66S781 741.86 781 741.86H243.3v-0.09z m112.02-434.61c37.15 0 67.18 29.48 67.18 66.03s-30.03 66.03-67.18 66.03-67.18-29.48-67.18-66.03 30.05-66.03 67.18-66.03zM780.9 175.19H243.3c-24.73 0-44.85 19.76-44.85 44.02v527.96c0 24.36 20.12 44.02 44.85 44.02H781c24.73 0 44.85-19.65 44.85-44.02V219.21c-0.1-24.26-20.12-44.02-44.95-44.02z m89.6 131.97h45.15c24.62 0 44.45 19.95 44.45 43.83v264.22c0 24.27-20.42 43.83-44.45 43.83H870.5V307.16z m-716.8 0h-45.15c-24.03 0-44.45 19.65-44.45 43.83v264.22c0 23.98 19.92 43.83 44.45 43.83h45.15V307.16z" fill="#959595" p-id="2662"></path></svg>